<mxfile host="app.diagrams.net" agent="Mozilla/5.0 (Windows NT 10.0; Win64; x64) AppleWebKit/537.36 (KHTML, like Gecko) Chrome/135.0.0.0 Safari/537.36" version="26.2.10">
  <diagram name="Page-1" id="1hU3jkiJx5hLCJtjfa3W">
    <mxGraphModel grid="1" page="1" gridSize="10" guides="1" tooltips="1" connect="1" arrows="1" fold="1" pageScale="1" pageWidth="850" pageHeight="1100" math="0" shadow="0">
      <root>
        <mxCell id="0" />
        <mxCell id="1" parent="0" />
        <mxCell id="DfRPHR7kbry3jG2AlMr0-82" style="edgeStyle=orthogonalEdgeStyle;rounded=0;orthogonalLoop=1;jettySize=auto;html=1;entryX=0;entryY=0.5;entryDx=0;entryDy=0;" edge="1" parent="1" source="lYKra5e-OoGciufJjLER-1" target="DfRPHR7kbry3jG2AlMr0-12">
          <mxGeometry relative="1" as="geometry" />
        </mxCell>
        <mxCell id="lYKra5e-OoGciufJjLER-1" value="&lt;font style=&quot;&quot;&gt;&lt;b style=&quot;&quot;&gt;&lt;font style=&quot;font-size: 12px;&quot;&gt;author&lt;/font&gt;&lt;/b&gt;&lt;br&gt;&lt;br&gt;&lt;font style=&quot;font-size: 12px;&quot;&gt;&amp;lt;u&amp;gt;author_id&amp;lt;/u&amp;gt; (PK)&lt;br&gt;first_name&lt;br&gt;last_name&lt;/font&gt;&lt;/font&gt;" style="rounded=0;whiteSpace=wrap;html=1;" vertex="1" parent="1">
          <mxGeometry x="100" y="290" width="150" height="90" as="geometry" />
        </mxCell>
        <mxCell id="DfRPHR7kbry3jG2AlMr0-12" value="&lt;b&gt;&lt;font style=&quot;font-size: 12px;&quot;&gt;book_author&lt;/font&gt;&lt;/b&gt;&lt;br&gt;&lt;br&gt;book_id (FK)&lt;br&gt;author_id (FK)" style="rounded=0;whiteSpace=wrap;html=1;" vertex="1" parent="1">
          <mxGeometry x="270" y="520" width="145" height="60" as="geometry" />
        </mxCell>
        <mxCell id="DfRPHR7kbry3jG2AlMr0-42" value="" style="endArrow=none;html=1;rounded=0;exitX=-0.007;exitY=0.354;exitDx=0;exitDy=0;exitPerimeter=0;entryX=0.996;entryY=0.383;entryDx=0;entryDy=0;entryPerimeter=0;" edge="1" parent="1" source="lYKra5e-OoGciufJjLER-1" target="lYKra5e-OoGciufJjLER-1">
          <mxGeometry width="50" height="50" relative="1" as="geometry">
            <mxPoint x="47.75" y="159.99999999999994" as="sourcePoint" />
            <mxPoint x="190" y="180" as="targetPoint" />
            <Array as="points" />
          </mxGeometry>
        </mxCell>
        <mxCell id="DfRPHR7kbry3jG2AlMr0-43" value="book_language&lt;br&gt;&lt;br&gt;&lt;br&gt;&amp;lt;u&amp;gt;language_id&amp;lt;/u&amp;gt; (PK)&lt;br&gt;language_name&lt;br&gt;&lt;div&gt;fr&lt;br&gt;&lt;div&gt;&lt;br&gt;&lt;/div&gt;&lt;/div&gt;" style="rounded=0;whiteSpace=wrap;html=1;" vertex="1" parent="1">
          <mxGeometry x="425" y="590" width="147" height="120" as="geometry" />
        </mxCell>
        <mxCell id="DfRPHR7kbry3jG2AlMr0-47" value="" style="endArrow=none;html=1;rounded=0;exitX=-0.002;exitY=0.333;exitDx=0;exitDy=0;exitPerimeter=0;entryX=0.975;entryY=0.333;entryDx=0;entryDy=0;entryPerimeter=0;" edge="1" parent="1" source="DfRPHR7kbry3jG2AlMr0-43" target="DfRPHR7kbry3jG2AlMr0-43">
          <mxGeometry width="50" height="50" relative="1" as="geometry">
            <mxPoint x="250" y="390" as="sourcePoint" />
            <mxPoint x="300" y="340" as="targetPoint" />
          </mxGeometry>
        </mxCell>
        <mxCell id="DfRPHR7kbry3jG2AlMr0-49" value="publisher&lt;br&gt;&lt;br&gt;&lt;br&gt;&amp;lt;u&amp;gt;publisher_id&amp;lt;/u&amp;gt; (PK)&lt;br&gt;publisher_name&lt;br&gt;&lt;br&gt;&lt;div&gt;&lt;br&gt;&lt;/div&gt;" style="rounded=0;whiteSpace=wrap;html=1;" vertex="1" parent="1">
          <mxGeometry x="550" y="80" width="177" height="120" as="geometry" />
        </mxCell>
        <mxCell id="DfRPHR7kbry3jG2AlMr0-50" value="" style="endArrow=none;html=1;rounded=0;exitX=0.009;exitY=0.377;exitDx=0;exitDy=0;exitPerimeter=0;entryX=1.013;entryY=0.386;entryDx=0;entryDy=0;entryPerimeter=0;" edge="1" parent="1" source="DfRPHR7kbry3jG2AlMr0-49" target="DfRPHR7kbry3jG2AlMr0-49">
          <mxGeometry width="50" height="50" relative="1" as="geometry">
            <mxPoint x="180" y="480" as="sourcePoint" />
            <mxPoint x="340" y="620" as="targetPoint" />
          </mxGeometry>
        </mxCell>
        <mxCell id="DfRPHR7kbry3jG2AlMr0-51" value="customer_address&lt;br&gt;&lt;br&gt;&amp;lt;u&amp;gt;customer_address_id&amp;lt;/u&amp;gt; (PK)&lt;br/&gt;customer_id (FK)&lt;br/&gt;address_id (FK)&lt;br/&gt;address_status_id (FK)&lt;br&gt;&lt;br&gt;&lt;br&gt;&lt;div&gt;&lt;br&gt;&lt;/div&gt;" style="rounded=0;whiteSpace=wrap;html=1;" vertex="1" parent="1">
          <mxGeometry x="600" y="360" width="230" height="140" as="geometry" />
        </mxCell>
        <mxCell id="DfRPHR7kbry3jG2AlMr0-58" value="" style="endArrow=none;html=1;rounded=0;exitX=0.991;exitY=0.203;exitDx=0;exitDy=0;exitPerimeter=0;entryX=0.007;entryY=0.192;entryDx=0;entryDy=0;entryPerimeter=0;" edge="1" parent="1" source="DfRPHR7kbry3jG2AlMr0-51" target="DfRPHR7kbry3jG2AlMr0-51">
          <mxGeometry width="50" height="50" relative="1" as="geometry">
            <mxPoint x="190" y="240" as="sourcePoint" />
            <mxPoint x="240" y="190" as="targetPoint" />
          </mxGeometry>
        </mxCell>
        <mxCell id="SWiwc4Dpv7_t1czA2s8G-3" style="edgeStyle=orthogonalEdgeStyle;rounded=0;orthogonalLoop=1;jettySize=auto;html=1;entryX=0.5;entryY=1;entryDx=0;entryDy=0;" edge="1" parent="1" source="DfRPHR7kbry3jG2AlMr0-59" target="DfRPHR7kbry3jG2AlMr0-51">
          <mxGeometry relative="1" as="geometry" />
        </mxCell>
        <mxCell id="DfRPHR7kbry3jG2AlMr0-59" value="address_status&lt;br&gt;&lt;br&gt;&lt;div&gt;&amp;lt;u&amp;gt;address_status_id&amp;lt;/u&amp;gt; (PK)&lt;br&gt;status_name&lt;br&gt;&lt;br&gt;&lt;br&gt;&lt;/div&gt;" style="rounded=0;whiteSpace=wrap;html=1;" vertex="1" parent="1">
          <mxGeometry x="700" y="600" width="180" height="100" as="geometry" />
        </mxCell>
        <mxCell id="DfRPHR7kbry3jG2AlMr0-60" value="" style="endArrow=none;html=1;rounded=0;entryX=1;entryY=0.25;entryDx=0;entryDy=0;exitX=0;exitY=0.25;exitDx=0;exitDy=0;" edge="1" parent="1" source="DfRPHR7kbry3jG2AlMr0-59" target="DfRPHR7kbry3jG2AlMr0-59">
          <mxGeometry width="50" height="50" relative="1" as="geometry">
            <mxPoint x="190" y="240" as="sourcePoint" />
            <mxPoint x="240" y="190" as="targetPoint" />
          </mxGeometry>
        </mxCell>
        <mxCell id="SWiwc4Dpv7_t1czA2s8G-1" style="edgeStyle=orthogonalEdgeStyle;rounded=0;orthogonalLoop=1;jettySize=auto;html=1;entryX=0.5;entryY=0;entryDx=0;entryDy=0;" edge="1" parent="1">
          <mxGeometry relative="1" as="geometry">
            <mxPoint x="1025" y="180" as="sourcePoint" />
            <mxPoint x="770" y="360" as="targetPoint" />
          </mxGeometry>
        </mxCell>
        <mxCell id="SWiwc4Dpv7_t1czA2s8G-7" style="edgeStyle=orthogonalEdgeStyle;rounded=0;orthogonalLoop=1;jettySize=auto;html=1;entryX=0.5;entryY=0;entryDx=0;entryDy=0;" edge="1" parent="1" source="DfRPHR7kbry3jG2AlMr0-61" target="DfRPHR7kbry3jG2AlMr0-66">
          <mxGeometry relative="1" as="geometry" />
        </mxCell>
        <mxCell id="DfRPHR7kbry3jG2AlMr0-61" value="address&lt;br&gt;&lt;br&gt;&amp;lt;u&amp;gt;address_id&amp;lt;/u&amp;gt; (PK)&lt;br&gt;street_address&lt;br&gt;city&lt;br&gt;postal_code&lt;br&gt;country_id (FK)" style="rounded=0;whiteSpace=wrap;html=1;" vertex="1" parent="1">
          <mxGeometry x="970" y="100" width="220" height="160" as="geometry" />
        </mxCell>
        <mxCell id="DfRPHR7kbry3jG2AlMr0-62" value="" style="endArrow=none;html=1;rounded=0;exitX=0.008;exitY=0.316;exitDx=0;exitDy=0;exitPerimeter=0;entryX=0.991;entryY=0.319;entryDx=0;entryDy=0;entryPerimeter=0;" edge="1" parent="1" source="DfRPHR7kbry3jG2AlMr0-61" target="DfRPHR7kbry3jG2AlMr0-61">
          <mxGeometry width="50" height="50" relative="1" as="geometry">
            <mxPoint x="470" y="420" as="sourcePoint" />
            <mxPoint x="536" y="420" as="targetPoint" />
          </mxGeometry>
        </mxCell>
        <mxCell id="DfRPHR7kbry3jG2AlMr0-63" value="&lt;br&gt;country&lt;br&gt;&lt;br&gt;&amp;lt;u&amp;gt;county_id&amp;lt;/u&amp;gt; (PK)&lt;br&gt;country_name" style="rounded=0;whiteSpace=wrap;html=1;" vertex="1" parent="1">
          <mxGeometry x="970" y="440" width="205" height="90" as="geometry" />
        </mxCell>
        <mxCell id="DfRPHR7kbry3jG2AlMr0-64" value="" style="endArrow=none;html=1;rounded=0;exitX=0;exitY=0.5;exitDx=0;exitDy=0;entryX=1;entryY=0.5;entryDx=0;entryDy=0;" edge="1" parent="1" source="DfRPHR7kbry3jG2AlMr0-63" target="DfRPHR7kbry3jG2AlMr0-63">
          <mxGeometry width="50" height="50" relative="1" as="geometry">
            <mxPoint x="470" y="670" as="sourcePoint" />
            <mxPoint x="520" y="620" as="targetPoint" />
          </mxGeometry>
        </mxCell>
        <mxCell id="SWiwc4Dpv7_t1czA2s8G-10" style="edgeStyle=orthogonalEdgeStyle;rounded=0;orthogonalLoop=1;jettySize=auto;html=1;" edge="1" parent="1" source="DfRPHR7kbry3jG2AlMr0-66">
          <mxGeometry relative="1" as="geometry">
            <mxPoint x="1760" y="170" as="targetPoint" />
            <Array as="points">
              <mxPoint x="1760" y="270" />
            </Array>
          </mxGeometry>
        </mxCell>
        <mxCell id="SWiwc4Dpv7_t1czA2s8G-11" style="edgeStyle=orthogonalEdgeStyle;rounded=0;orthogonalLoop=1;jettySize=auto;html=1;entryX=0.5;entryY=0;entryDx=0;entryDy=0;" edge="1" parent="1" source="DfRPHR7kbry3jG2AlMr0-66" target="DfRPHR7kbry3jG2AlMr0-74">
          <mxGeometry relative="1" as="geometry">
            <Array as="points">
              <mxPoint x="1455" y="670" />
              <mxPoint x="1550" y="670" />
            </Array>
          </mxGeometry>
        </mxCell>
        <mxCell id="DfRPHR7kbry3jG2AlMr0-66" value="cust_order&lt;br&gt;&lt;br&gt;&amp;lt;u&amp;gt;order_id&amp;lt;/u&amp;gt; (PK)&lt;br&gt;customer_id (FK)&lt;br&gt;order_date&lt;div&gt;shipping_address_id (FK)&lt;br&gt;shipping_method_id (FK)&lt;br&gt;order_status&lt;br&gt;&lt;br&gt;&lt;br&gt;&lt;/div&gt;" style="rounded=0;whiteSpace=wrap;html=1;" vertex="1" parent="1">
          <mxGeometry x="1350" y="210" width="210" height="200" as="geometry" />
        </mxCell>
        <mxCell id="DfRPHR7kbry3jG2AlMr0-67" value="" style="endArrow=none;html=1;rounded=0;exitX=0;exitY=0.25;exitDx=0;exitDy=0;entryX=1;entryY=0.25;entryDx=0;entryDy=0;" edge="1" parent="1" source="DfRPHR7kbry3jG2AlMr0-66" target="DfRPHR7kbry3jG2AlMr0-66">
          <mxGeometry width="50" height="50" relative="1" as="geometry">
            <mxPoint x="700" y="670" as="sourcePoint" />
            <mxPoint x="750" y="620" as="targetPoint" />
          </mxGeometry>
        </mxCell>
        <mxCell id="DfRPHR7kbry3jG2AlMr0-68" value="shipping_method&lt;br&gt;&lt;br&gt;&amp;lt;u&amp;gt;shipping_method&amp;lt;/u&amp;gt; (PK)&lt;div&gt;method_name&lt;/div&gt;&lt;div&gt;cost&lt;/div&gt;" style="rounded=0;whiteSpace=wrap;html=1;" vertex="1" parent="1">
          <mxGeometry x="1165" y="590" width="185" height="90" as="geometry" />
        </mxCell>
        <mxCell id="DfRPHR7kbry3jG2AlMr0-69" value="" style="endArrow=none;html=1;rounded=0;entryX=1;entryY=0.25;entryDx=0;entryDy=0;exitX=0;exitY=0.25;exitDx=0;exitDy=0;" edge="1" parent="1" source="DfRPHR7kbry3jG2AlMr0-68" target="DfRPHR7kbry3jG2AlMr0-68">
          <mxGeometry width="50" height="50" relative="1" as="geometry">
            <mxPoint x="650" y="740" as="sourcePoint" />
            <mxPoint x="750" y="620" as="targetPoint" />
          </mxGeometry>
        </mxCell>
        <mxCell id="DfRPHR7kbry3jG2AlMr0-70" value="order_line&lt;br&gt;&lt;br&gt;&amp;lt;u&amp;gt;order_line_id&amp;lt;/u&amp;gt; (PK)&lt;br&gt;order_id (FK)&lt;br&gt;book_id (FK)&lt;div&gt;quantity&lt;br&gt;price_at_purchase&lt;/div&gt;" style="rounded=0;whiteSpace=wrap;html=1;" vertex="1" parent="1">
          <mxGeometry x="1660" y="40" width="190" height="130" as="geometry" />
        </mxCell>
        <mxCell id="DfRPHR7kbry3jG2AlMr0-72" value="" style="endArrow=none;html=1;rounded=0;exitX=0;exitY=0.25;exitDx=0;exitDy=0;entryX=1;entryY=0.25;entryDx=0;entryDy=0;" edge="1" parent="1" source="DfRPHR7kbry3jG2AlMr0-70" target="DfRPHR7kbry3jG2AlMr0-70">
          <mxGeometry width="50" height="50" relative="1" as="geometry">
            <mxPoint x="700" y="970" as="sourcePoint" />
            <mxPoint x="750" y="920" as="targetPoint" />
          </mxGeometry>
        </mxCell>
        <mxCell id="DfRPHR7kbry3jG2AlMr0-73" style="edgeStyle=orthogonalEdgeStyle;rounded=0;orthogonalLoop=1;jettySize=auto;html=1;exitX=0.5;exitY=1;exitDx=0;exitDy=0;" edge="1" parent="1" source="DfRPHR7kbry3jG2AlMr0-70" target="DfRPHR7kbry3jG2AlMr0-70">
          <mxGeometry relative="1" as="geometry" />
        </mxCell>
        <mxCell id="DfRPHR7kbry3jG2AlMr0-74" value="order_history&lt;br&gt;&lt;br&gt;&amp;lt;u&amp;gt;order_history_id&amp;lt;/u&amp;gt;&lt;br&gt;order_id (FK)&lt;br&gt;order_status_id (FK)&lt;div&gt;change_timestamp&lt;br&gt;&lt;div&gt;notes&lt;/div&gt;&lt;/div&gt;" style="rounded=0;whiteSpace=wrap;html=1;" vertex="1" parent="1">
          <mxGeometry x="1460" y="720" width="180" height="120" as="geometry" />
        </mxCell>
        <mxCell id="DfRPHR7kbry3jG2AlMr0-75" value="" style="endArrow=none;html=1;rounded=0;entryX=0;entryY=0.25;entryDx=0;entryDy=0;exitX=1;exitY=0.25;exitDx=0;exitDy=0;" edge="1" parent="1" source="DfRPHR7kbry3jG2AlMr0-74" target="DfRPHR7kbry3jG2AlMr0-74">
          <mxGeometry width="50" height="50" relative="1" as="geometry">
            <mxPoint x="770" y="570" as="sourcePoint" />
            <mxPoint x="820" y="520" as="targetPoint" />
          </mxGeometry>
        </mxCell>
        <mxCell id="SWiwc4Dpv7_t1czA2s8G-9" style="edgeStyle=orthogonalEdgeStyle;rounded=0;orthogonalLoop=1;jettySize=auto;html=1;entryX=1;entryY=0.5;entryDx=0;entryDy=0;" edge="1" parent="1" source="DfRPHR7kbry3jG2AlMr0-76" target="DfRPHR7kbry3jG2AlMr0-66">
          <mxGeometry relative="1" as="geometry" />
        </mxCell>
        <mxCell id="DfRPHR7kbry3jG2AlMr0-76" value="order_status&lt;br&gt;&lt;br&gt;&lt;br&gt;&amp;lt;u&amp;gt;order_status&amp;lt;/u&amp;gt; (PK)&lt;br&gt;status_name" style="rounded=0;whiteSpace=wrap;html=1;" vertex="1" parent="1">
          <mxGeometry x="1540" y="540" width="180" height="100" as="geometry" />
        </mxCell>
        <mxCell id="DfRPHR7kbry3jG2AlMr0-77" value="" style="endArrow=none;html=1;rounded=0;exitX=0;exitY=0.5;exitDx=0;exitDy=0;entryX=1;entryY=0.5;entryDx=0;entryDy=0;" edge="1" parent="1" source="DfRPHR7kbry3jG2AlMr0-76" target="DfRPHR7kbry3jG2AlMr0-76">
          <mxGeometry width="50" height="50" relative="1" as="geometry">
            <mxPoint x="760" y="880" as="sourcePoint" />
            <mxPoint x="810" y="830" as="targetPoint" />
          </mxGeometry>
        </mxCell>
        <mxCell id="DfRPHR7kbry3jG2AlMr0-79" value="&lt;div&gt;&lt;br/&gt;&lt;/div&gt;" style="edgeLabel;html=1;align=center;verticalAlign=middle;resizable=0;points=[];" connectable="0" vertex="1" parent="DfRPHR7kbry3jG2AlMr0-77">
          <mxGeometry x="0.418" y="2" relative="1" as="geometry">
            <mxPoint as="offset" />
          </mxGeometry>
        </mxCell>
        <mxCell id="DfRPHR7kbry3jG2AlMr0-78" style="edgeStyle=orthogonalEdgeStyle;rounded=0;orthogonalLoop=1;jettySize=auto;html=1;exitX=0.5;exitY=1;exitDx=0;exitDy=0;" edge="1" parent="1" source="DfRPHR7kbry3jG2AlMr0-76" target="DfRPHR7kbry3jG2AlMr0-76">
          <mxGeometry relative="1" as="geometry" />
        </mxCell>
        <mxCell id="DfRPHR7kbry3jG2AlMr0-80" value="" style="endArrow=none;html=1;rounded=0;exitX=0;exitY=0.25;exitDx=0;exitDy=0;entryX=1;entryY=0.25;entryDx=0;entryDy=0;" edge="1" parent="1" source="DfRPHR7kbry3jG2AlMr0-12" target="DfRPHR7kbry3jG2AlMr0-12">
          <mxGeometry width="50" height="50" relative="1" as="geometry">
            <mxPoint x="620" y="280" as="sourcePoint" />
            <mxPoint x="170" y="190" as="targetPoint" />
          </mxGeometry>
        </mxCell>
        <mxCell id="SWiwc4Dpv7_t1czA2s8G-6" style="edgeStyle=orthogonalEdgeStyle;rounded=0;orthogonalLoop=1;jettySize=auto;html=1;entryX=0.456;entryY=0.996;entryDx=0;entryDy=0;entryPerimeter=0;" edge="1" parent="1" source="DfRPHR7kbry3jG2AlMr0-63" target="DfRPHR7kbry3jG2AlMr0-61">
          <mxGeometry relative="1" as="geometry" />
        </mxCell>
        <mxCell id="SWiwc4Dpv7_t1czA2s8G-12" style="edgeStyle=orthogonalEdgeStyle;rounded=0;orthogonalLoop=1;jettySize=auto;html=1;entryX=0.004;entryY=0.552;entryDx=0;entryDy=0;entryPerimeter=0;" edge="1" parent="1" source="DfRPHR7kbry3jG2AlMr0-68" target="DfRPHR7kbry3jG2AlMr0-66">
          <mxGeometry relative="1" as="geometry" />
        </mxCell>
      </root>
    </mxGraphModel>
  </diagram>
</mxfile>
